<svg width="32" height="32" viewBox="0 0 32 32" fill="none" xmlns="http://www.w3.org/2000/svg">
<rect width="32" height="32" rx="4" fill="black"/>
<path d="M7.768 23V11.72H10.312L10.624 12.896C10.848 12.448 11.168 12.112 11.584 11.888C12.016 11.648 12.416 11.528 12.784 11.528C13.232 11.528 13.576 11.552 13.816 11.6C14.056 11.632 14.232 11.688 14.344 11.768L14.2 14.48C14.04 14.432 13.808 14.392 13.504 14.36C13.216 14.312 12.888 14.288 12.52 14.288C12.12 14.288 11.752 14.408 11.416 14.648C11.096 14.888 10.92 15.28 10.888 15.824V23H7.768ZM15.5566 16.928V14.408H23.7646V16.928H15.5566Z" fill="white"/>
</svg>
